<mxfile modified="2023-01-12T03:26:19.639Z" host="app.diagrams.net" agent="5.0 (Macintosh; Intel Mac OS X 10_15_7) AppleWebKit/537.36 (KHTML, like Gecko) Chrome/108.0.0.0 Safari/537.36" etag="SjL1Bp0mqZZ6Y_gbcvpb" version="20.7.3" type="github">
  <diagram id="Ht1M8jgEwFfnCIfOTk4-" name="Page-1">
    <mxGraphModel dx="1314" dy="760" grid="1" gridSize="10" guides="1" tooltips="1" connect="1" arrows="1" fold="1" page="1" pageScale="1" pageWidth="1169" pageHeight="827" math="0" shadow="0">
      <root>
        <mxCell id="0" />
        <mxCell id="1" parent="0" />
        <mxCell id="nRqCH_bGwkeyl7pTUhJR-1" value="AWS Organization" style="points=[[0,0],[0.25,0],[0.5,0],[0.75,0],[1,0],[1,0.25],[1,0.5],[1,0.75],[1,1],[0.75,1],[0.5,1],[0.25,1],[0,1],[0,0.75],[0,0.5],[0,0.25]];outlineConnect=0;gradientColor=none;html=1;whiteSpace=wrap;fontSize=12;fontStyle=0;container=1;pointerEvents=0;collapsible=0;recursiveResize=0;shape=mxgraph.aws4.group;grIcon=mxgraph.aws4.group_account;strokeColor=#CD2264;fillColor=none;verticalAlign=top;align=left;spacingLeft=30;fontColor=#CD2264;dashed=0;" vertex="1" parent="1">
          <mxGeometry x="150" y="190" width="750" height="230" as="geometry" />
        </mxCell>
        <mxCell id="nRqCH_bGwkeyl7pTUhJR-4" value="DEV Account" style="sketch=0;outlineConnect=0;fontColor=#232F3E;gradientColor=none;fillColor=#B0084D;strokeColor=none;dashed=0;verticalLabelPosition=bottom;verticalAlign=top;align=center;html=1;fontSize=12;fontStyle=0;aspect=fixed;pointerEvents=1;shape=mxgraph.aws4.organizations_account;" vertex="1" parent="nRqCH_bGwkeyl7pTUhJR-1">
          <mxGeometry x="70" y="85" width="56.92" height="60" as="geometry" />
        </mxCell>
        <mxCell id="nRqCH_bGwkeyl7pTUhJR-6" value="Staging/UAT Account" style="sketch=0;outlineConnect=0;fontColor=#232F3E;gradientColor=none;fillColor=#B0084D;strokeColor=none;dashed=0;verticalLabelPosition=bottom;verticalAlign=top;align=center;html=1;fontSize=12;fontStyle=0;aspect=fixed;pointerEvents=1;shape=mxgraph.aws4.organizations_account;" vertex="1" parent="nRqCH_bGwkeyl7pTUhJR-1">
          <mxGeometry x="210" y="85" width="56.92" height="60" as="geometry" />
        </mxCell>
        <mxCell id="nRqCH_bGwkeyl7pTUhJR-10" value="Production AWS Accounts" style="points=[[0,0],[0.25,0],[0.5,0],[0.75,0],[1,0],[1,0.25],[1,0.5],[1,0.75],[1,1],[0.75,1],[0.5,1],[0.25,1],[0,1],[0,0.75],[0,0.5],[0,0.25]];outlineConnect=0;gradientColor=none;html=1;whiteSpace=wrap;fontSize=12;fontStyle=0;container=1;pointerEvents=0;collapsible=0;recursiveResize=0;shape=mxgraph.aws4.group;grIcon=mxgraph.aws4.group_account;strokeColor=#CD2264;fillColor=none;verticalAlign=top;align=left;spacingLeft=30;fontColor=#CD2264;dashed=0;" vertex="1" parent="nRqCH_bGwkeyl7pTUhJR-1">
          <mxGeometry x="410" y="60" width="290" height="140" as="geometry" />
        </mxCell>
        <mxCell id="nRqCH_bGwkeyl7pTUhJR-7" value="Prod Client A" style="sketch=0;outlineConnect=0;fontColor=#232F3E;gradientColor=none;fillColor=#B0084D;strokeColor=none;dashed=0;verticalLabelPosition=bottom;verticalAlign=top;align=center;html=1;fontSize=12;fontStyle=0;aspect=fixed;pointerEvents=1;shape=mxgraph.aws4.organizations_account;" vertex="1" parent="nRqCH_bGwkeyl7pTUhJR-10">
          <mxGeometry x="30" y="50" width="56.92" height="60" as="geometry" />
        </mxCell>
        <mxCell id="nRqCH_bGwkeyl7pTUhJR-8" value="Prod Client B" style="sketch=0;outlineConnect=0;fontColor=#232F3E;gradientColor=none;fillColor=#B0084D;strokeColor=none;dashed=0;verticalLabelPosition=bottom;verticalAlign=top;align=center;html=1;fontSize=12;fontStyle=0;aspect=fixed;pointerEvents=1;shape=mxgraph.aws4.organizations_account;" vertex="1" parent="nRqCH_bGwkeyl7pTUhJR-10">
          <mxGeometry x="116.53999999999996" y="50" width="56.92" height="60" as="geometry" />
        </mxCell>
        <mxCell id="nRqCH_bGwkeyl7pTUhJR-9" value="Prod Client C" style="sketch=0;outlineConnect=0;fontColor=#232F3E;gradientColor=none;fillColor=#B0084D;strokeColor=none;dashed=0;verticalLabelPosition=bottom;verticalAlign=top;align=center;html=1;fontSize=12;fontStyle=0;aspect=fixed;pointerEvents=1;shape=mxgraph.aws4.organizations_account;" vertex="1" parent="nRqCH_bGwkeyl7pTUhJR-10">
          <mxGeometry x="200" y="50" width="56.92" height="60" as="geometry" />
        </mxCell>
        <mxCell id="nRqCH_bGwkeyl7pTUhJR-17" style="edgeStyle=orthogonalEdgeStyle;rounded=0;orthogonalLoop=1;jettySize=auto;html=1;" edge="1" parent="1" source="nRqCH_bGwkeyl7pTUhJR-14" target="nRqCH_bGwkeyl7pTUhJR-1">
          <mxGeometry relative="1" as="geometry" />
        </mxCell>
        <mxCell id="nRqCH_bGwkeyl7pTUhJR-14" value="Root Account" style="sketch=0;outlineConnect=0;fontColor=#232F3E;gradientColor=none;fillColor=#B0084D;strokeColor=none;dashed=0;verticalLabelPosition=bottom;verticalAlign=top;align=center;html=1;fontSize=12;fontStyle=0;aspect=fixed;pointerEvents=1;shape=mxgraph.aws4.organizations_account;" vertex="1" parent="1">
          <mxGeometry x="496.53999999999996" y="20" width="56.92" height="60" as="geometry" />
        </mxCell>
      </root>
    </mxGraphModel>
  </diagram>
</mxfile>
